<svg xmlns="http://www.w3.org/2000/svg" viewBox="0 0 50.4 131.69"><title>Ativo 8</title><g id="Camada_2" data-name="Camada 2"><g id="Camada_1-2" data-name="Camada 1"><path d="M50.4,107.49l-8,1.52v11.37l8,1.51v9.8L0,122V107.06l50.4-9.21Zm-41,7.35,16.78,2.81,8.56,1.58v-9l-8.56,1.66-16.78,2.8Z"/><path d="M0,93.67V74.52a16.37,16.37,0,0,1,5.58-7.74,15.59,15.59,0,0,1,10-3.2q9.65,0,14.19,7.63L50.4,63.94V74L32,80.13V84H50.4v9.72ZM8.64,84H24V77.76c-.2-.82-1-1.72-2.49-2.7a9,9,0,0,0-5.15-1.48,10.38,10.38,0,0,0-5.18,1.26Q8.93,76.1,8.64,77.33Z"/><path d="M8.64,51V61.85H0V30.31H8.64V41.18H50.4V51Z"/><path d="M50.4,26.14H0V.29H8.64v16h12V2H29V16.27h13V0H50.4Z"/></g></g></svg>