<svg xmlns="http://www.w3.org/2000/svg" viewBox="0 0 95.69 50.4"><title>Ativo 1</title><g id="Camada_2" data-name="Camada 2"><g id="Camada_1-2" data-name="Camada 1"><path d="M0,50.4V0H20.88Q31.11,9.07,31.1,24.59T21.53,50.4Zm9.79-8.35h6.48a19.12,19.12,0,0,0,3.21-7.35,39.92,39.92,0,0,0,1.18-9.57q0-11.31-4.24-16.49H9.79Z"/><path d="M57.46,50.4l-1.52-8H44.57l-1.51,8h-9.8L43,0H57.89L67.1,50.4Zm-7.35-41L47.3,26.14,45.72,34.7h9l-1.66-8.56L50.26,9.36Z"/><path d="M75,8.64H64.15V0H95.69V8.64H84.82V50.4H75Z"/></g></g></svg>