<svg xmlns="http://www.w3.org/2000/svg" viewBox="0 0 155.75 155.74"><title>Ativo 7</title><g id="Camada_2" data-name="Camada 2"><g id="Camada_1-2" data-name="Camada 1"><path d="M82.54,80h-8.8V64.15h8.78V62.86c0-3.7-.13-7.42.16-11.11.46-6,2.84-11.06,8.27-14.24a16.16,16.16,0,0,1,7.92-2.29c5.38-.11,10.76,0,16.22,0V50.5h-9.8c-2.43,0-4,1.32-4.06,3.71-.12,3.25,0,6.51,0,9.89h14.2c-.55,5.35-1.08,10.55-1.63,15.87H101.21v44.82H82.54Z"/><path d="M77.74,155.74q-16.17,0-32.34,0A45.24,45.24,0,0,1,0,110.37Q0,77.91,0,45.45A45.22,45.22,0,0,1,45.56,0Q77.78,0,110,0c25.69,0,45.72,20,45.74,45.72q0,32.1,0,64.2c0,25.82-20,45.8-45.9,45.81Zm66-77.77q0-16.17,0-32.33c0-19.1-14.56-33.63-33.68-33.65q-32.22,0-64.43,0C26.54,12,12,26.55,12,45.67q0,32.22,0,64.43c0,19.09,14.58,33.64,33.68,33.65q32.22,0,64.43,0c19.09,0,33.63-14.58,33.65-33.68Q143.79,94,143.77,78Z"/></g></g></svg>