<svg xmlns="http://www.w3.org/2000/svg" viewBox="0 0 155.75 155.74"><title>Ativo 5</title><g id="Camada_2" data-name="Camada 2"><g id="Camada_1-2" data-name="Camada 1"><path d="M77.74,155.74q-16.17,0-32.34,0A45.24,45.24,0,0,1,0,110.37Q0,77.91,0,45.45A45.22,45.22,0,0,1,45.56,0Q77.78,0,110,0c25.69,0,45.72,20,45.74,45.72q0,32.1,0,64.2c0,25.82-20,45.8-45.9,45.81Zm66-77.77q0-16.17,0-32.33c0-19.1-14.56-33.63-33.68-33.65q-32.22,0-64.43,0C26.54,12,12,26.55,12,45.67q0,32.22,0,64.43c0,19.09,14.58,33.64,33.68,33.65q32.22,0,64.43,0c19.09,0,33.63-14.58,33.65-33.68Q143.79,94,143.77,78Z"/><path d="M36,77.79a41.93,41.93,0,1,1,41.79,42A42,42,0,0,1,36,77.79Zm71.88.19a30,30,0,1,0-30.12,29.84A29.86,29.86,0,0,0,107.83,78Z"/><path d="M125.75,35.94a6,6,0,1,1,6-5.88A6,6,0,0,1,125.75,35.94Z"/></g></g></svg>