<svg xmlns="http://www.w3.org/2000/svg" viewBox="0 0 323.71 50.4"><title>Ativo 6</title><g id="Camada_2" data-name="Camada 2"><g id="Camada_1-2" data-name="Camada 1"><path d="M10.87,8.64H0V0H31.54V8.64H20.66V50.4H10.87Z"/><path d="M35.71,50.4V0H61.56V8.64h-16v12H59.83V29H45.58v13H61.85V50.4Z"/><path d="M80.64,42.05H93.31V50.4H75a28.24,28.24,0,0,1-7.2-11.3A41.55,41.55,0,0,1,65.38,25a36.55,36.55,0,0,1,2.73-13.93A27.32,27.32,0,0,1,76.25,0H93.31V8.64H80.64a19,19,0,0,0-3.35,7.2,34.75,34.75,0,0,0-1.4,9.5,34.77,34.77,0,0,0,1.4,9.51A19,19,0,0,0,80.64,42.05Z"/><path d="M121,50.4,107.57,22.54l-.36.14.43,8.5V50.4H98.57V0h7.27l13.25,28.94.36-.14-.8-8.86V0h9.08V50.4Z"/><path d="M158.11,0a24.29,24.29,0,0,1,7.49,11,42.27,42.27,0,0,1,2.45,14.22,40.45,40.45,0,0,1-2.38,13.86,28.12,28.12,0,0,1-7.56,11.3H143.28a28.12,28.12,0,0,1-7.56-11.3,40.22,40.22,0,0,1-2.38-13.86A42.27,42.27,0,0,1,135.79,11a24.29,24.29,0,0,1,7.49-11Zm-10,42.05h5.19a17.67,17.67,0,0,0,3.06-6.81,38.41,38.41,0,0,0,1.26-10,38.58,38.58,0,0,0-1.23-9.9,17.25,17.25,0,0,0-3-6.73H148.1A17.51,17.51,0,0,0,145,15.37a37.71,37.71,0,0,0-1.26,9.9,38.41,38.41,0,0,0,1.26,10A17.53,17.53,0,0,0,148.1,42.05Z"/><path d="M173.66,50.4V0h9.86V42.05h15V50.4Z"/><path d="M224.71,0a24.36,24.36,0,0,1,7.49,11,42.27,42.27,0,0,1,2.45,14.22,40.45,40.45,0,0,1-2.38,13.86,28.12,28.12,0,0,1-7.56,11.3H209.88a28.12,28.12,0,0,1-7.56-11.3,40.22,40.22,0,0,1-2.38-13.86A42.27,42.27,0,0,1,202.39,11a24.29,24.29,0,0,1,7.49-11Zm-10,42.05h5.19A17.82,17.82,0,0,0,223,35.24a38.85,38.85,0,0,0,1.26-10,38.58,38.58,0,0,0-1.23-9.9,17.25,17.25,0,0,0-3-6.73H214.7a17.51,17.51,0,0,0-3.06,6.73,37.71,37.71,0,0,0-1.26,9.9,38.41,38.41,0,0,0,1.26,10A17.53,17.53,0,0,0,214.7,42.05Z"/><path d="M264.16,50.4H248.9a28.12,28.12,0,0,1-7.56-11.3A40,40,0,0,1,239,25.38a36.83,36.83,0,0,1,2.88-14.15A28,28,0,0,1,249.91,0H267.4V8.64H254a18.47,18.47,0,0,0-3.24,6.8,34.87,34.87,0,0,0-1.37,9.87,38.27,38.27,0,0,0,1.26,9.93,16.77,16.77,0,0,0,3.14,6.81h6.91V22.46h9.5v12.1Q270.21,44.49,264.16,50.4Z"/><path d="M275.83,50.4V0h9.86V50.4Z"/><path d="M314.06,50.4l-1.51-8H301.17l-1.51,8h-9.79L299.59,0h14.9l9.22,50.4Zm-7.34-41-2.81,16.78-1.59,8.56h9l-1.65-8.56L306.86,9.36Z"/></g></g></svg>