<svg xmlns="http://www.w3.org/2000/svg" viewBox="0 0 50.4 177.12"><title>Ativo 7</title><g id="Camada_2" data-name="Camada 2"><g id="Camada_1-2" data-name="Camada 1"><path d="M0,0H50.4V20.88Q41.33,31.11,25.81,31.1T0,21.53ZM8.35,9.79v6.48a19.12,19.12,0,0,0,7.35,3.21,39.92,39.92,0,0,0,9.57,1.18q11.31,0,16.49-4.24V9.79Z"/><path d="M0,36.72H50.4V62.57H41.76v-16h-12V60.84H21.38V46.58h-13V62.86H0Z"/><path d="M50.4,72.29V89.57H41.76V75.74l-.43-.21-21,11.52Q14,90.58,10.66,90.58,3.39,90.58,0,85.75V66.67H8.35V81.58l.43.21L32,68.83q5-2.81,8.21-2.81Q47.74,66,50.4,72.29Z"/><path d="M0,95.61H50.4v9.87H0Z"/><path d="M0,136.29V121a28.12,28.12,0,0,1,11.3-7.56A40,40,0,0,1,25,111.09,36.83,36.83,0,0,1,39.17,114,28,28,0,0,1,50.4,122v17.49H41.76V126.14A18.47,18.47,0,0,0,35,122.9a34.87,34.87,0,0,0-9.87-1.37,38.27,38.27,0,0,0-9.93,1.26,16.77,16.77,0,0,0-6.81,3.14v6.91H27.94v9.5H15.84Q5.91,142.34,0,136.29Z"/><path d="M0,170.42,27.86,157l-.14-.36-8.5.43H0V148H50.4v7.27L21.46,168.48l.14.36,8.86-.8H50.4v9.08H0Z"/></g></g></svg>