<svg xmlns="http://www.w3.org/2000/svg" viewBox="0 0 50.4 110.88"><title>Ativo 17</title><g id="Camada_2" data-name="Camada 2"><g id="Camada_1-2" data-name="Camada 1"><path d="M0,0H50.4V9.86h-42v15H0Z"/><path d="M0,51.19l8-1.51V38.3L0,36.79V27l50.4,9.72v14.9L0,60.84Zm41-7.34L24.26,41,15.7,39.46v9l8.56-1.66L41,44Z"/><path d="M0,65H50.4V85.53a14.89,14.89,0,0,1-4.54,6.27A11.76,11.76,0,0,1,38,94.53q-8.14,0-11.38-5.32h-.29q-3.68,6.62-11.52,6.62-9,0-14.83-9.14Zm29.59,9.8v7.12A6.46,6.46,0,0,0,35.5,85.1a7.51,7.51,0,0,0,6.26-2.95V74.81Zm-21.24,0v7.41a8.16,8.16,0,0,0,3,2.34,8.69,8.69,0,0,0,4,1A7.79,7.79,0,0,0,19,84.74a6,6,0,0,0,2.45-2.16V74.81Z"/><path d="M10.66,100.51v10.37H0V100.51Z"/></g></g></svg>