<svg xmlns="http://www.w3.org/2000/svg" viewBox="0 0 339.19 50.4"><title>Ativo 5</title><g id="Camada_2" data-name="Camada 2"><g id="Camada_1-2" data-name="Camada 1"><path d="M0,50.4V0H9.86V42.05h15V50.4Z"/><path d="M51.19,50.4l-1.51-8H38.3l-1.51,8H27L36.72,0h14.9l9.22,50.4Zm-7.34-41L41,26.14,39.46,34.7h9L46.8,26.14,44,9.36Z"/><path d="M65,50.4V0H85.53A14.89,14.89,0,0,1,91.8,4.54a11.76,11.76,0,0,1,2.73,7.84q0,8.14-5.32,11.38v.29q6.62,3.68,6.62,11.52,0,9-9.14,14.83Zm9.8-29.59h7.12A6.46,6.46,0,0,0,85.1,14.9a7.51,7.51,0,0,0-2.95-6.26H74.81Zm0,21.24h7.41a8.16,8.16,0,0,0,2.34-2.95,8.69,8.69,0,0,0,1-4,7.79,7.79,0,0,0-.87-3.67,6,6,0,0,0-2.16-2.45H74.81Z"/><path d="M100.51,39.74h10.37V50.4H100.51Z"/><path d="M142.7,42.05h12.67V50.4H137.08a28.33,28.33,0,0,1-7.19-11.3A41.32,41.32,0,0,1,127.44,25a36.55,36.55,0,0,1,2.73-13.93A27.42,27.42,0,0,1,138.31,0h17.06V8.64H142.7a19.19,19.19,0,0,0-3.35,7.2,35.14,35.14,0,0,0-1.4,9.5,35.16,35.16,0,0,0,1.4,9.51A19.19,19.19,0,0,0,142.7,42.05Z"/><path d="M170.49,50.4h-9.86V0h9.86V20.3H182V0h9.87V50.4H182V29.52H170.49Z"/><path d="M198.79,50.4V0h9.86V50.4Z"/><path d="M233.92,27.36h0l3.82-15.77L240.83,0h9l3.25,50.4h-9.44l-1.36-27.5h-.36l-5.19,20.3h-5.9l-5.19-20.3h-.36l-1.36,27.5h-9.44L217.72,0h9l3.1,11.59,3.82,15.77Z"/><path d="M258.91,50.4V0h9.86V50.4Z"/><path d="M289.65,42.05h12.67V50.4H284a28.46,28.46,0,0,1-7.2-11.3A41.55,41.55,0,0,1,274.39,25a36.55,36.55,0,0,1,2.73-13.93A27.42,27.42,0,0,1,285.26,0h17.06V8.64H289.65a19,19,0,0,0-3.35,7.2,35.14,35.14,0,0,0-1.4,9.5,35.16,35.16,0,0,0,1.4,9.51A19,19,0,0,0,289.65,42.05Z"/><path d="M329.25,0a24.29,24.29,0,0,1,7.49,11,42.27,42.27,0,0,1,2.45,14.22,40.45,40.45,0,0,1-2.38,13.86,28.12,28.12,0,0,1-7.56,11.3H314.42a28.12,28.12,0,0,1-7.56-11.3,40.22,40.22,0,0,1-2.38-13.86A42.27,42.27,0,0,1,306.93,11a24.29,24.29,0,0,1,7.49-11Zm-10,42.05h5.19a17.53,17.53,0,0,0,3.06-6.81,38.41,38.41,0,0,0,1.26-10,38.58,38.58,0,0,0-1.23-9.9,17.1,17.1,0,0,0-3-6.73h-5.26a17.51,17.51,0,0,0-3.06,6.73,37.71,37.71,0,0,0-1.26,9.9,38.41,38.41,0,0,0,1.26,10A17.53,17.53,0,0,0,319.24,42.05Z"/></g></g></svg>